<mxfile host="app.diagrams.net" agent="Mozilla/5.0 (Windows NT 10.0; Win64; x64) AppleWebKit/537.36 (KHTML, like Gecko) Chrome/131.0.0.0 Safari/537.36 Edg/131.0.0.0" version="25.0.3">
  <diagram name="第 1 页" id="32cf2SjD67FVLoWvo91B">
    <mxGraphModel dx="1311" dy="709" grid="1" gridSize="10" guides="1" tooltips="1" connect="1" arrows="1" fold="1" page="1" pageScale="1" pageWidth="600" pageHeight="550" math="0" shadow="0">
      <root>
        <mxCell id="0" />
        <mxCell id="1" parent="0" />
        <mxCell id="BgFvJU5Psar2_dKR7bJg-219" value="" style="rounded=0;whiteSpace=wrap;html=1;dashed=1;strokeWidth=2;fillColor=#00C9A7;strokeColor=#000000;shadow=1;" parent="1" vertex="1">
          <mxGeometry x="466" y="56" width="100" height="230" as="geometry" />
        </mxCell>
        <mxCell id="BgFvJU5Psar2_dKR7bJg-217" value="" style="rounded=0;whiteSpace=wrap;html=1;dashed=1;strokeWidth=2;fillColor=#1398d6;strokeColor=#000000;shadow=1;" parent="1" vertex="1">
          <mxGeometry x="308" y="172" width="140" height="324" as="geometry" />
        </mxCell>
        <mxCell id="BgFvJU5Psar2_dKR7bJg-214" value="" style="rounded=0;whiteSpace=wrap;html=1;dashed=1;strokeWidth=2;fillColor=#fef3cd;strokeColor=#000000;shadow=1;" parent="1" vertex="1">
          <mxGeometry x="48" y="172" width="250" height="324" as="geometry" />
        </mxCell>
        <mxCell id="BgFvJU5Psar2_dKR7bJg-161" value="" style="rounded=0;whiteSpace=wrap;html=1;dashed=1;strokeWidth=2;fillColor=#136cb7;strokeColor=#000000;shadow=1;" parent="1" vertex="1">
          <mxGeometry x="190" y="178" width="97" height="200" as="geometry" />
        </mxCell>
        <mxCell id="BgFvJU5Psar2_dKR7bJg-108" value="" style="rounded=0;whiteSpace=wrap;html=1;dashed=1;strokeWidth=2;fillColor=#d80073;strokeColor=#000000;shadow=1;fontColor=#ffffff;" parent="1" vertex="1">
          <mxGeometry x="53" y="286" width="80" height="80" as="geometry" />
        </mxCell>
        <mxCell id="BgFvJU5Psar2_dKR7bJg-110" value="" style="rounded=0;whiteSpace=wrap;html=1;dashed=1;strokeWidth=2;fillColor=#dae8fc;strokeColor=#000000;shadow=1;" parent="1" vertex="1">
          <mxGeometry x="203" y="186" width="80" height="76" as="geometry" />
        </mxCell>
        <mxCell id="BgFvJU5Psar2_dKR7bJg-109" value="" style="rounded=0;whiteSpace=wrap;html=1;dashed=1;strokeWidth=2;fillColor=#fcbb11;strokeColor=#000000;shadow=1;" parent="1" vertex="1">
          <mxGeometry x="105" y="181" width="80" height="80" as="geometry" />
        </mxCell>
        <mxCell id="BgFvJU5Psar2_dKR7bJg-221" value="" style="endArrow=none;html=1;rounded=0;strokeWidth=3;entryX=0;entryY=0.75;entryDx=0;entryDy=0;entryPerimeter=0;shadow=1;" parent="1" edge="1">
          <mxGeometry width="50" height="50" relative="1" as="geometry">
            <mxPoint x="152" y="493" as="sourcePoint" />
            <mxPoint x="152" y="505" as="targetPoint" />
          </mxGeometry>
        </mxCell>
        <mxCell id="BgFvJU5Psar2_dKR7bJg-220" value="" style="rounded=0;whiteSpace=wrap;html=1;dashed=1;strokeWidth=2;fillColor=#b1ddf0;strokeColor=#10739e;shadow=1;" parent="1" vertex="1">
          <mxGeometry x="381.5" y="61" width="77" height="90" as="geometry" />
        </mxCell>
        <mxCell id="BgFvJU5Psar2_dKR7bJg-218" value="" style="rounded=0;whiteSpace=wrap;html=1;dashed=1;strokeWidth=2;fillColor=#cce5ff;strokeColor=#36393d;shadow=1;" parent="1" vertex="1">
          <mxGeometry x="370" y="296" width="70" height="80" as="geometry" />
        </mxCell>
        <mxCell id="BgFvJU5Psar2_dKR7bJg-215" value="" style="rounded=0;whiteSpace=wrap;html=1;dashed=1;strokeWidth=2;fillColor=#b0e3e6;strokeColor=#0e8088;shadow=1;" parent="1" vertex="1">
          <mxGeometry x="244" y="66" width="80" height="80" as="geometry" />
        </mxCell>
        <mxCell id="BgFvJU5Psar2_dKR7bJg-164" value="" style="rounded=0;whiteSpace=wrap;html=1;dashed=1;strokeWidth=2;fillColor=#fad9d5;strokeColor=#000000;shadow=1;" parent="1" vertex="1">
          <mxGeometry x="325" y="181" width="80" height="80" as="geometry" />
        </mxCell>
        <mxCell id="BgFvJU5Psar2_dKR7bJg-162" value="" style="rounded=0;whiteSpace=wrap;html=1;dashed=1;strokeWidth=2;fillColor=#cdeb8b;strokeColor=#36393d;shadow=1;" parent="1" vertex="1">
          <mxGeometry x="476" y="62" width="77" height="90" as="geometry" />
        </mxCell>
        <mxCell id="BgFvJU5Psar2_dKR7bJg-12" value="" style="verticalLabelPosition=bottom;shadow=1;dashed=0;align=center;html=1;verticalAlign=top;shape=mxgraph.electrical.logic_gates.logic_gate;operation=xor;negating=1;negSize=0.15;strokeWidth=3;direction=south;" parent="1" vertex="1">
          <mxGeometry x="194" y="276" width="60" height="100" as="geometry" />
        </mxCell>
        <mxCell id="BgFvJU5Psar2_dKR7bJg-13" value="" style="verticalLabelPosition=bottom;shadow=1;dashed=0;align=center;html=1;verticalAlign=top;shape=mxgraph.electrical.logic_gates.logic_gate;operation=and;negating=1;negSize=0.15;strokeWidth=3;direction=south;" parent="1" vertex="1">
          <mxGeometry x="63" y="276" width="60" height="100" as="geometry" />
        </mxCell>
        <mxCell id="BgFvJU5Psar2_dKR7bJg-14" value="" style="verticalLabelPosition=bottom;shadow=1;dashed=0;align=center;html=1;verticalAlign=top;shape=mxgraph.electrical.logic_gates.logic_gate;operation=and;negating=1;negSize=0.15;strokeWidth=3;direction=south;" parent="1" vertex="1">
          <mxGeometry x="115" y="170" width="60" height="100" as="geometry" />
        </mxCell>
        <mxCell id="BgFvJU5Psar2_dKR7bJg-16" value="" style="endArrow=none;html=1;rounded=0;entryX=1;entryY=0.5;entryDx=0;entryDy=0;entryPerimeter=0;strokeWidth=3;shadow=1;" parent="1" target="BgFvJU5Psar2_dKR7bJg-14" edge="1">
          <mxGeometry width="50" height="50" relative="1" as="geometry">
            <mxPoint x="145" y="276" as="sourcePoint" />
            <mxPoint x="145" y="365" as="targetPoint" />
          </mxGeometry>
        </mxCell>
        <mxCell id="BgFvJU5Psar2_dKR7bJg-18" value="" style="verticalLabelPosition=bottom;shadow=1;dashed=0;align=center;html=1;verticalAlign=top;shape=mxgraph.electrical.logic_gates.logic_gate;operation=xor;negating=1;negSize=0.15;strokeWidth=3;direction=south;" parent="1" vertex="1">
          <mxGeometry x="122" y="398" width="60" height="100" as="geometry" />
        </mxCell>
        <mxCell id="BgFvJU5Psar2_dKR7bJg-21" value="" style="endArrow=none;html=1;rounded=0;strokeWidth=3;entryX=0;entryY=0.75;entryDx=0;entryDy=0;entryPerimeter=0;edgeStyle=orthogonalEdgeStyle;shadow=1;" parent="1" target="BgFvJU5Psar2_dKR7bJg-13" edge="1">
          <mxGeometry width="50" height="50" relative="1" as="geometry">
            <mxPoint x="78" y="36" as="sourcePoint" />
            <mxPoint x="54" y="274" as="targetPoint" />
            <Array as="points">
              <mxPoint x="78" y="44" />
            </Array>
          </mxGeometry>
        </mxCell>
        <mxCell id="BgFvJU5Psar2_dKR7bJg-22" value="" style="endArrow=none;html=1;rounded=0;strokeWidth=3;entryX=0;entryY=0.75;entryDx=0;entryDy=0;entryPerimeter=0;edgeStyle=orthogonalEdgeStyle;shadow=1;" parent="1" target="BgFvJU5Psar2_dKR7bJg-14" edge="1">
          <mxGeometry width="50" height="50" relative="1" as="geometry">
            <mxPoint x="130" y="36" as="sourcePoint" />
            <mxPoint x="135" y="155" as="targetPoint" />
          </mxGeometry>
        </mxCell>
        <mxCell id="BgFvJU5Psar2_dKR7bJg-23" value="" style="endArrow=none;html=1;rounded=0;strokeWidth=3;entryX=0;entryY=0.25;entryDx=0;entryDy=0;entryPerimeter=0;edgeStyle=orthogonalEdgeStyle;shadow=1;" parent="1" target="BgFvJU5Psar2_dKR7bJg-14" edge="1">
          <mxGeometry width="50" height="50" relative="1" as="geometry">
            <mxPoint x="160" y="36" as="sourcePoint" />
            <mxPoint x="140" y="185" as="targetPoint" />
          </mxGeometry>
        </mxCell>
        <mxCell id="BgFvJU5Psar2_dKR7bJg-24" value="" style="verticalLabelPosition=bottom;shadow=1;dashed=0;align=center;html=1;verticalAlign=top;shape=mxgraph.electrical.logic_gates.logic_gate;operation=and;negating=1;negSize=0.15;strokeWidth=3;direction=south;" parent="1" vertex="1">
          <mxGeometry x="216" y="171" width="60" height="100" as="geometry" />
        </mxCell>
        <mxCell id="BgFvJU5Psar2_dKR7bJg-25" value="" style="endArrow=none;html=1;rounded=0;strokeWidth=3;shadow=1;" parent="1" edge="1">
          <mxGeometry width="50" height="50" relative="1" as="geometry">
            <mxPoint x="247.5" y="276" as="sourcePoint" />
            <mxPoint x="238" y="276" as="targetPoint" />
          </mxGeometry>
        </mxCell>
        <mxCell id="BgFvJU5Psar2_dKR7bJg-27" value="" style="endArrow=none;html=1;rounded=0;strokeWidth=3;entryX=0;entryY=0.75;entryDx=0;entryDy=0;entryPerimeter=0;edgeStyle=orthogonalEdgeStyle;shadow=1;" parent="1" target="BgFvJU5Psar2_dKR7bJg-24" edge="1">
          <mxGeometry width="50" height="50" relative="1" as="geometry">
            <mxPoint x="231" y="76" as="sourcePoint" />
            <mxPoint x="226" y="166" as="targetPoint" />
          </mxGeometry>
        </mxCell>
        <mxCell id="BgFvJU5Psar2_dKR7bJg-28" value="" style="verticalLabelPosition=bottom;shadow=1;dashed=0;align=center;html=1;verticalAlign=top;shape=mxgraph.electrical.logic_gates.logic_gate;operation=and;negating=1;negSize=0.15;strokeWidth=3;direction=south;" parent="1" vertex="1">
          <mxGeometry x="254" y="56" width="60" height="100" as="geometry" />
        </mxCell>
        <mxCell id="BgFvJU5Psar2_dKR7bJg-29" value="" style="endArrow=none;html=1;rounded=0;strokeWidth=3;entryX=0;entryY=0.25;entryDx=0;entryDy=0;entryPerimeter=0;edgeStyle=orthogonalEdgeStyle;exitX=1;exitY=0.5;exitDx=0;exitDy=0;exitPerimeter=0;shadow=1;" parent="1" source="BgFvJU5Psar2_dKR7bJg-28" target="BgFvJU5Psar2_dKR7bJg-24" edge="1">
          <mxGeometry width="50" height="50" relative="1" as="geometry">
            <mxPoint x="203" y="86" as="sourcePoint" />
            <mxPoint x="203" y="176" as="targetPoint" />
          </mxGeometry>
        </mxCell>
        <mxCell id="BgFvJU5Psar2_dKR7bJg-30" value="" style="verticalLabelPosition=bottom;shadow=1;dashed=0;align=center;html=1;verticalAlign=top;shape=mxgraph.electrical.logic_gates.logic_gate;operation=and;negating=1;negSize=0.15;strokeWidth=3;direction=south;" parent="1" vertex="1">
          <mxGeometry x="333" y="172" width="60" height="100" as="geometry" />
        </mxCell>
        <mxCell id="BgFvJU5Psar2_dKR7bJg-31" value="" style="endArrow=none;html=1;rounded=0;strokeWidth=3;edgeStyle=orthogonalEdgeStyle;exitX=0;exitY=0.75;exitDx=0;exitDy=0;exitPerimeter=0;shadow=1;" parent="1" source="BgFvJU5Psar2_dKR7bJg-30" edge="1">
          <mxGeometry width="50" height="50" relative="1" as="geometry">
            <mxPoint x="338" y="175" as="sourcePoint" />
            <mxPoint x="278" y="166" as="targetPoint" />
            <Array as="points">
              <mxPoint x="348" y="166" />
            </Array>
          </mxGeometry>
        </mxCell>
        <mxCell id="BgFvJU5Psar2_dKR7bJg-32" value="" style="verticalLabelPosition=bottom;shadow=1;dashed=0;align=center;html=1;verticalAlign=top;shape=mxgraph.electrical.logic_gates.logic_gate;operation=xor;negating=1;negSize=0.15;strokeWidth=3;direction=south;" parent="1" vertex="1">
          <mxGeometry x="348" y="399" width="60" height="100" as="geometry" />
        </mxCell>
        <mxCell id="BgFvJU5Psar2_dKR7bJg-33" value="" style="endArrow=none;html=1;rounded=0;strokeWidth=3;entryX=0;entryY=0.75;entryDx=0;entryDy=0;entryPerimeter=0;edgeStyle=orthogonalEdgeStyle;exitX=1;exitY=0.5;exitDx=0;exitDy=0;exitPerimeter=0;shadow=1;" parent="1" source="BgFvJU5Psar2_dKR7bJg-30" target="BgFvJU5Psar2_dKR7bJg-32" edge="1">
          <mxGeometry width="50" height="50" relative="1" as="geometry">
            <mxPoint x="343" y="256" as="sourcePoint" />
            <mxPoint x="343" y="496" as="targetPoint" />
          </mxGeometry>
        </mxCell>
        <mxCell id="BgFvJU5Psar2_dKR7bJg-34" value="" style="endArrow=none;html=1;rounded=0;strokeWidth=3;shadow=1;" parent="1" edge="1">
          <mxGeometry width="50" height="50" relative="1" as="geometry">
            <mxPoint x="106.5" y="275" as="sourcePoint" />
            <mxPoint x="209.5" y="275" as="targetPoint" />
          </mxGeometry>
        </mxCell>
        <mxCell id="BgFvJU5Psar2_dKR7bJg-35" value="" style="verticalLabelPosition=bottom;shadow=1;dashed=0;align=center;html=1;verticalAlign=top;shape=mxgraph.electrical.logic_gates.logic_gate;operation=and;negating=1;negSize=0.15;strokeWidth=3;direction=south;" parent="1" vertex="1">
          <mxGeometry x="375" y="286" width="60" height="100" as="geometry" />
        </mxCell>
        <mxCell id="BgFvJU5Psar2_dKR7bJg-36" value="" style="endArrow=none;html=1;rounded=0;strokeWidth=3;edgeStyle=orthogonalEdgeStyle;exitX=0;exitY=0.75;exitDx=0;exitDy=0;exitPerimeter=0;shadow=1;" parent="1" source="BgFvJU5Psar2_dKR7bJg-35" edge="1">
          <mxGeometry width="50" height="50" relative="1" as="geometry">
            <mxPoint x="407.99" y="286" as="sourcePoint" />
            <mxPoint x="362.99" y="270" as="targetPoint" />
            <Array as="points">
              <mxPoint x="390" y="277" />
              <mxPoint x="363" y="277" />
            </Array>
          </mxGeometry>
        </mxCell>
        <mxCell id="BgFvJU5Psar2_dKR7bJg-38" value="" style="verticalLabelPosition=bottom;shadow=1;dashed=0;align=center;html=1;verticalAlign=top;shape=mxgraph.electrical.logic_gates.logic_gate;operation=xor;negating=1;negSize=0.15;strokeWidth=3;direction=south;" parent="1" vertex="1">
          <mxGeometry x="390" y="56" width="60" height="100" as="geometry" />
        </mxCell>
        <mxCell id="BgFvJU5Psar2_dKR7bJg-39" value="" style="verticalLabelPosition=bottom;shadow=1;dashed=0;align=center;html=1;verticalAlign=top;shape=mxgraph.electrical.logic_gates.logic_gate;operation=xor;negating=1;negSize=0.15;strokeWidth=3;direction=south;" parent="1" vertex="1">
          <mxGeometry x="486" y="56" width="60" height="100" as="geometry" />
        </mxCell>
        <mxCell id="BgFvJU5Psar2_dKR7bJg-40" value="" style="endArrow=none;html=1;rounded=0;strokeWidth=3;entryX=0;entryY=0.25;entryDx=0;entryDy=0;entryPerimeter=0;edgeStyle=orthogonalEdgeStyle;shadow=1;" parent="1" target="BgFvJU5Psar2_dKR7bJg-35" edge="1">
          <mxGeometry width="50" height="50" relative="1" as="geometry">
            <mxPoint x="420" y="156" as="sourcePoint" />
            <mxPoint x="419.71000000000004" y="286" as="targetPoint" />
          </mxGeometry>
        </mxCell>
        <mxCell id="BgFvJU5Psar2_dKR7bJg-41" value="" style="verticalLabelPosition=bottom;shadow=1;dashed=0;align=center;html=1;verticalAlign=top;shape=mxgraph.electrical.logic_gates.logic_gate;operation=xor;negating=1;negSize=0.15;strokeWidth=3;direction=south;" parent="1" vertex="1">
          <mxGeometry x="471" y="177" width="60" height="100" as="geometry" />
        </mxCell>
        <mxCell id="BgFvJU5Psar2_dKR7bJg-42" value="" style="endArrow=none;html=1;rounded=0;strokeWidth=3;exitX=1;exitY=0.5;exitDx=0;exitDy=0;exitPerimeter=0;entryX=0.09;entryY=0.25;entryDx=0;entryDy=0;entryPerimeter=0;shadow=1;" parent="1" source="BgFvJU5Psar2_dKR7bJg-39" target="BgFvJU5Psar2_dKR7bJg-41" edge="1">
          <mxGeometry width="50" height="50" relative="1" as="geometry">
            <mxPoint x="411" y="166" as="sourcePoint" />
            <mxPoint x="516" y="176" as="targetPoint" />
          </mxGeometry>
        </mxCell>
        <mxCell id="BgFvJU5Psar2_dKR7bJg-43" value="" style="endArrow=none;html=1;rounded=0;strokeWidth=3;edgeStyle=orthogonalEdgeStyle;exitX=0;exitY=0.75;exitDx=0;exitDy=0;exitPerimeter=0;entryX=0;entryY=0.25;entryDx=0;entryDy=0;entryPerimeter=0;shadow=1;" parent="1" source="BgFvJU5Psar2_dKR7bJg-41" target="BgFvJU5Psar2_dKR7bJg-30" edge="1">
          <mxGeometry width="50" height="50" relative="1" as="geometry">
            <mxPoint x="467.99" y="162" as="sourcePoint" />
            <mxPoint x="422.99" y="146" as="targetPoint" />
            <Array as="points">
              <mxPoint x="486" y="166" />
              <mxPoint x="378" y="166" />
            </Array>
          </mxGeometry>
        </mxCell>
        <mxCell id="BgFvJU5Psar2_dKR7bJg-44" value="" style="endArrow=none;html=1;rounded=0;strokeWidth=3;exitX=0.986;exitY=0.5;exitDx=0;exitDy=0;exitPerimeter=0;shadow=1;" parent="1" source="BgFvJU5Psar2_dKR7bJg-41" edge="1">
          <mxGeometry width="50" height="50" relative="1" as="geometry">
            <mxPoint x="500.71000000000004" y="277" as="sourcePoint" />
            <mxPoint x="501" y="346" as="targetPoint" />
          </mxGeometry>
        </mxCell>
        <mxCell id="BgFvJU5Psar2_dKR7bJg-45" value="" style="endArrow=none;html=1;rounded=0;strokeWidth=3;edgeStyle=orthogonalEdgeStyle;exitX=0;exitY=0.75;exitDx=0;exitDy=0;exitPerimeter=0;entryX=0;entryY=0.25;entryDx=0;entryDy=0;entryPerimeter=0;shadow=1;" parent="1" source="BgFvJU5Psar2_dKR7bJg-39" edge="1">
          <mxGeometry width="50" height="50" relative="1" as="geometry">
            <mxPoint x="580" y="61" as="sourcePoint" />
            <mxPoint x="435" y="56" as="targetPoint" />
            <Array as="points">
              <mxPoint x="501" y="50" />
              <mxPoint x="435" y="50" />
            </Array>
          </mxGeometry>
        </mxCell>
        <mxCell id="BgFvJU5Psar2_dKR7bJg-46" value="" style="endArrow=none;html=1;rounded=0;strokeWidth=3;entryX=0.09;entryY=0.25;entryDx=0;entryDy=0;entryPerimeter=0;shadow=1;" parent="1" edge="1">
          <mxGeometry width="50" height="50" relative="1" as="geometry">
            <mxPoint x="476" y="36" as="sourcePoint" />
            <mxPoint x="476" y="51" as="targetPoint" />
          </mxGeometry>
        </mxCell>
        <mxCell id="BgFvJU5Psar2_dKR7bJg-47" value="" style="endArrow=none;html=1;rounded=0;strokeWidth=3;entryX=0.09;entryY=0.25;entryDx=0;entryDy=0;entryPerimeter=0;shadow=1;" parent="1" edge="1">
          <mxGeometry width="50" height="50" relative="1" as="geometry">
            <mxPoint x="405" y="36" as="sourcePoint" />
            <mxPoint x="404.9200000000001" y="56" as="targetPoint" />
          </mxGeometry>
        </mxCell>
        <mxCell id="BgFvJU5Psar2_dKR7bJg-48" value="" style="endArrow=none;html=1;rounded=0;strokeWidth=3;entryX=0.09;entryY=0.25;entryDx=0;entryDy=0;entryPerimeter=0;shadow=1;" parent="1" edge="1">
          <mxGeometry width="50" height="50" relative="1" as="geometry">
            <mxPoint x="531.0799999999999" y="36" as="sourcePoint" />
            <mxPoint x="531" y="56" as="targetPoint" />
          </mxGeometry>
        </mxCell>
        <mxCell id="BgFvJU5Psar2_dKR7bJg-49" value="" style="endArrow=none;html=1;rounded=0;strokeWidth=3;entryX=0.09;entryY=0.25;entryDx=0;entryDy=0;entryPerimeter=0;shadow=1;" parent="1" edge="1">
          <mxGeometry width="50" height="50" relative="1" as="geometry">
            <mxPoint x="269.0799999999999" y="36" as="sourcePoint" />
            <mxPoint x="269" y="56" as="targetPoint" />
          </mxGeometry>
        </mxCell>
        <mxCell id="BgFvJU5Psar2_dKR7bJg-51" value="" style="endArrow=none;html=1;rounded=0;strokeWidth=3;entryX=0.09;entryY=0.25;entryDx=0;entryDy=0;entryPerimeter=0;shadow=1;" parent="1" edge="1">
          <mxGeometry width="50" height="50" relative="1" as="geometry">
            <mxPoint x="299.0799999999999" y="36" as="sourcePoint" />
            <mxPoint x="299" y="56" as="targetPoint" />
          </mxGeometry>
        </mxCell>
        <mxCell id="BgFvJU5Psar2_dKR7bJg-52" value="" style="endArrow=none;html=1;rounded=0;strokeWidth=3;entryX=0.09;entryY=0.25;entryDx=0;entryDy=0;entryPerimeter=0;shadow=1;" parent="1" edge="1">
          <mxGeometry width="50" height="50" relative="1" as="geometry">
            <mxPoint x="231" y="36" as="sourcePoint" />
            <mxPoint x="231" y="76" as="targetPoint" />
          </mxGeometry>
        </mxCell>
        <mxCell id="BgFvJU5Psar2_dKR7bJg-53" value="" style="endArrow=none;html=1;rounded=0;strokeWidth=3;shadow=1;" parent="1" edge="1">
          <mxGeometry width="50" height="50" relative="1" as="geometry">
            <mxPoint x="245.95000000000005" y="276" as="sourcePoint" />
            <mxPoint x="245.95000000000005" y="266" as="targetPoint" />
            <Array as="points">
              <mxPoint x="245.95000000000005" y="276" />
            </Array>
          </mxGeometry>
        </mxCell>
        <mxCell id="BgFvJU5Psar2_dKR7bJg-56" value="" style="endArrow=none;html=1;rounded=0;strokeWidth=3;edgeStyle=orthogonalEdgeStyle;exitX=1;exitY=0.5;exitDx=0;exitDy=0;exitPerimeter=0;entryX=0;entryY=0.25;entryDx=0;entryDy=0;entryPerimeter=0;shadow=1;" parent="1" source="BgFvJU5Psar2_dKR7bJg-35" target="BgFvJU5Psar2_dKR7bJg-32" edge="1">
          <mxGeometry width="50" height="50" relative="1" as="geometry">
            <mxPoint x="420.01" y="406" as="sourcePoint" />
            <mxPoint x="393" y="390" as="targetPoint" />
            <Array as="points">
              <mxPoint x="405" y="397" />
              <mxPoint x="393" y="397" />
            </Array>
          </mxGeometry>
        </mxCell>
        <mxCell id="BgFvJU5Psar2_dKR7bJg-57" value="" style="endArrow=none;html=1;rounded=0;strokeWidth=3;shadow=1;" parent="1" edge="1">
          <mxGeometry width="50" height="50" relative="1" as="geometry">
            <mxPoint x="91.5" y="386" as="sourcePoint" />
            <mxPoint x="138.5" y="386" as="targetPoint" />
          </mxGeometry>
        </mxCell>
        <mxCell id="BgFvJU5Psar2_dKR7bJg-58" value="" style="endArrow=none;html=1;rounded=0;strokeWidth=3;shadow=1;" parent="1" edge="1">
          <mxGeometry width="50" height="50" relative="1" as="geometry">
            <mxPoint x="165.5" y="386" as="sourcePoint" />
            <mxPoint x="225.5" y="386" as="targetPoint" />
          </mxGeometry>
        </mxCell>
        <mxCell id="BgFvJU5Psar2_dKR7bJg-60" value="" style="endArrow=none;html=1;rounded=0;strokeWidth=3;shadow=1;" parent="1" edge="1">
          <mxGeometry width="50" height="50" relative="1" as="geometry">
            <mxPoint x="92.93000000000006" y="376" as="sourcePoint" />
            <mxPoint x="92.93000000000006" y="386" as="targetPoint" />
          </mxGeometry>
        </mxCell>
        <mxCell id="BgFvJU5Psar2_dKR7bJg-62" value="" style="endArrow=none;html=1;rounded=0;strokeWidth=3;entryX=0;entryY=0.75;entryDx=0;entryDy=0;entryPerimeter=0;shadow=1;" parent="1" target="BgFvJU5Psar2_dKR7bJg-18" edge="1">
          <mxGeometry width="50" height="50" relative="1" as="geometry">
            <mxPoint x="137" y="386" as="sourcePoint" />
            <mxPoint x="144.9000000000001" y="399.5" as="targetPoint" />
          </mxGeometry>
        </mxCell>
        <mxCell id="BgFvJU5Psar2_dKR7bJg-63" value="" style="endArrow=none;html=1;rounded=0;strokeWidth=3;entryX=0;entryY=0.75;entryDx=0;entryDy=0;entryPerimeter=0;shadow=1;" parent="1" edge="1">
          <mxGeometry width="50" height="50" relative="1" as="geometry">
            <mxPoint x="167" y="386" as="sourcePoint" />
            <mxPoint x="167" y="399.5" as="targetPoint" />
          </mxGeometry>
        </mxCell>
        <mxCell id="BgFvJU5Psar2_dKR7bJg-111" value="" style="endArrow=none;html=1;rounded=0;strokeWidth=3;entryX=0;entryY=0.75;entryDx=0;entryDy=0;entryPerimeter=0;shadow=1;" parent="1" edge="1">
          <mxGeometry width="50" height="50" relative="1" as="geometry">
            <mxPoint x="223.94000000000005" y="372.5" as="sourcePoint" />
            <mxPoint x="223.94000000000005" y="386" as="targetPoint" />
          </mxGeometry>
        </mxCell>
        <mxCell id="BgFvJU5Psar2_dKR7bJg-222" value="" style="endArrow=none;html=1;rounded=0;strokeWidth=3;entryX=0;entryY=0.75;entryDx=0;entryDy=0;entryPerimeter=0;shadow=1;" parent="1" edge="1">
          <mxGeometry width="50" height="50" relative="1" as="geometry">
            <mxPoint x="378" y="493" as="sourcePoint" />
            <mxPoint x="378" y="505" as="targetPoint" />
          </mxGeometry>
        </mxCell>
      </root>
    </mxGraphModel>
  </diagram>
</mxfile>
